<svg width="142" height="33" fill="none" xmlns="http://www.w3.org/2000/svg">
  <path
    d="M.8765 6.7373v25.8711h3.7139V13.8746h.24l7.63 18.6959h3.0823l7.6299-18.6833h.24v18.7212h3.714V6.7373h-4.7372L14.1531 26.848h-.3032L5.6136 6.7373H.8765ZM40.8611 33c4.2319 0 7.2257-2.0843 8.0847-5.2424l-3.5749-.6443c-.6822 1.8317-2.3244 2.7665-4.4719 2.7665-3.2339 0-5.4066-2.097-5.5077-5.8362h13.7946v-1.339c0-7.011-4.194-9.7522-8.5901-9.7522-5.4066 0-8.969 4.1182-8.969 10.0806 0 6.0257 3.5118 9.967 9.2343 9.967Zm-5.4572-11.786c.1516-2.7539 2.1475-5.1414 5.2172-5.1414 2.9307 0 4.8508 2.1728 4.8635 5.1414H35.4039ZM67.9165 17.9422c-.7832-3.0191-3.1454-4.9898-7.3394-4.9898-4.3834 0-7.491 2.3117-7.491 5.7477 0 2.7539 1.6675 4.5856 5.3056 5.3941l3.2844.72c1.8696.4169 2.7413 1.2506 2.7413 2.4633 0 1.5033-1.6044 2.6781-4.0803 2.6781-2.2612 0-3.7139-.9727-4.1687-2.8802l-3.6507.5558C53.1493 31.0672 56.0042 33 60.3624 33c4.6866 0 7.9331-2.4886 7.9331-6.0004 0-2.7412-1.7433-4.434-5.3056-5.2551l-3.0823-.7074c-2.1349-.5053-3.057-1.2253-3.0444-2.5391-.0126-1.4906 1.6043-2.5517 3.7518-2.5517 2.3496 0 3.436 1.3011 3.8782 2.6023l3.4233-.6064ZM81.5058 13.2051h-3.9792V8.5563h-3.7771v4.6488h-2.8423v3.0317h2.8423v11.4576c-.0126 3.5244 2.6781 5.2298 5.6593 5.1666 1.2001-.0126 2.0086-.24 2.4507-.4042l-.6821-3.1202c-.2527.0505-.7201.1642-1.3264.1642-1.2254 0-2.3244-.4042-2.3244-2.5896V16.2368h3.9792v-3.0317ZM93.6487 33c5.4698 0 9.0443-4.0045 9.0443-10.0049 0-6.0382-3.5745-10.0427-9.0443-10.0427-5.4698 0-9.0448 4.0045-9.0448 10.0427 0 6.0004 3.575 10.0049 9.0448 10.0049Zm.0126-3.1707c-3.5749 0-5.2424-3.1202-5.2424-6.8468 0-3.7139 1.6675-6.872 5.2424-6.872 3.5497 0 5.2172 3.1581 5.2172 6.872 0 3.7266-1.6675 6.8468-5.2172 6.8468ZM106.785 8.8932h1.044V5.5246h1.887c.075 0 .147 0 .219-.0043l1.819 3.3729h1.212l-1.949-3.5623c1.099-.3748 1.613-1.2717 1.613-2.417 0-1.5243-.91-2.6444-2.931-2.6444h-2.914v8.6237Zm1.044-4.3119V1.196h1.836c1.398 0 1.937.6821 1.937 1.718 0 1.0358-.539 1.6674-1.92 1.6674h-1.853ZM118.311 6.2488c0 1.2127-.926 1.7686-1.667 1.7686-.826 0-1.415-.6064-1.415-1.5496V2.4254h-.994v4.1098c0 1.6506.876 2.4422 2.088 2.4422.977 0 1.617-.5221 1.921-1.179h.067v1.0948h.994V2.4254h-.994v3.8234ZM125.706 3.874c-.311-.918-1.01-1.5328-2.29-1.5328-1.365 0-2.375.7748-2.375 1.8696 0 .8927.53 1.4906 1.718 1.7685l1.078.2527c.652.1516.96.4632.96.9095 0 .5558-.59 1.0106-1.516 1.0106-.813 0-1.322-.3495-1.499-1.0443l-.944.2358c.232 1.099 1.137 1.6844 2.46 1.6844 1.503 0 2.526-.8212 2.526-1.937 0-.9011-.564-1.4696-1.718-1.7517l-.96-.2358c-.766-.1895-1.112-.4464-1.112-.9432 0-.5559.59-.9601 1.382-.9601.867 0 1.225.48 1.397.9264l.893-.2527ZM131.901 3.874c-.311-.918-1.01-1.5328-2.29-1.5328-1.365 0-2.375.7748-2.375 1.8696 0 .8927.53 1.4906 1.718 1.7685l1.078.2527c.652.1516.96.4632.96.9095 0 .5558-.59 1.0106-1.516 1.0106-.813 0-1.322-.3495-1.499-1.0443l-.943.2358c.231 1.099 1.137 1.6844 2.459 1.6844 1.503 0 2.526-.8212 2.526-1.937 0-.9011-.564-1.4696-1.718-1.7517l-.96-.2358c-.766-.1895-1.112-.4464-1.112-.9432 0-.5559.59-.9601 1.382-.9601.867 0 1.225.48 1.398.9264l.892-.2527ZM133.515 8.8932h.994V2.4254h-.994v6.4678Zm.505-7.5457c.388 0 .708-.3032.708-.6738 0-.3705-.32-.6737-.708-.6737-.387 0-.707.3032-.707.6737 0 .3706.32.6738.707.6738ZM138.232 9.0448c1.129 0 1.718-.6064 1.92-1.0274h.051v.8758h.994V4.6319c0-2.0549-1.567-2.2907-2.392-2.2907-.977 0-2.089.3369-2.594 1.5159l.943.3369c.219-.4717.737-.977 1.685-.977.913 0 1.364.4843 1.364 1.3138v.0337c0 .48-.489.438-1.668.5895-1.2.1558-2.509.421-2.509 1.9033 0 1.2632.977 1.9875 2.206 1.9875Zm.152-.8927c-.792 0-1.364-.3537-1.364-1.0443 0-.758.69-.9937 1.465-1.0948.421-.0505 1.549-.1684 1.718-.3705v.9095c0 .8085-.64 1.6001-1.819 1.6001Z"
    fill="#fff"/>
</svg>
